<svg xmlns="http://www.w3.org/2000/svg" xmlns:xlink="http://www.w3.org/1999/xlink" width="421pt" height="492" viewBox="0 0 420.62 369.2"><g id="graph0" class="graph" transform="scale(1 1) rotate(0) translate(4 365.2)"><title>g</title><polygon fill="#fff" stroke="transparent" points="-4 4 -4 -365.2 416.618 -365.2 416.618 4 -4 4"/><g id="node1" class="node"><title>T1</title><polygon fill="none" stroke="#0058ad" points="235.8 -331.7 235.8 -360.7 373.902 -360.7 373.902 -331.7 235.8 -331.7"/><text x="273.147" y="-342" fill="#0058ad" font-family="Times,serif" font-size="14" text-anchor="middle">[:r x [1 2]]</text><polyline fill="none" stroke="#0058ad" points="310.493 -331.7 310.493 -360.7"/><text x="342.198" y="-342" fill="#0058ad" font-family="Times,serif" font-size="14" text-anchor="middle">[:r z [1]]</text></g><g id="node2" class="node"><title>T3</title><polygon fill="none" stroke="#0058ad" points="52.479 -248.9 52.479 -277.9 281.222 -277.9 281.222 -248.9 52.479 -248.9"/><text x="97.8" y="-259.2" fill="#0058ad" font-family="Times,serif" font-size="14" text-anchor="middle">[:append x 1]</text><polyline fill="none" stroke="#0058ad" points="143.12 -248.9 143.12 -277.9"/><text x="175.217" y="-259.2" fill="#0058ad" font-family="Times,serif" font-size="14" text-anchor="middle">[:r y [1]]</text><polyline fill="none" stroke="#0058ad" points="207.314 -248.9 207.314 -277.9"/><text x="244.268" y="-259.2" fill="#0058ad" font-family="Times,serif" font-size="14" text-anchor="middle">[:r z [1 2]]</text></g><g id="edge2" class="edge"><title>T1-&gt;T3</title><path fill="none" stroke="#0050c0" d="M280.4968,-331.5876C258.1687,-318.1907 224.9099,-298.2354 200.1338,-283.3698"/><polygon fill="#0050c0" stroke="#0050c0" points="201.801 -280.289 191.425 -278.145 198.2 -286.291 201.801 -280.289"/><text x="271.784" y="-300.6" fill="#0050c0" font-family="Times,serif" font-size="14" text-anchor="middle">realtime</text></g><g id="node4" class="node"><title>T7</title><polygon fill="none" stroke="#0058ad" points="160.602 -83.3 160.602 -112.3 341.099 -112.3 341.099 -83.3 160.602 -83.3"/><text x="205.53" y="-93.6" fill="#0058ad" font-family="Times,serif" font-size="14" text-anchor="middle">[:append z 2]</text><polyline fill="none" stroke="#0058ad" points="250.458 -83.3 250.458 -112.3"/><text x="295.779" y="-93.6" fill="#0058ad" font-family="Times,serif" font-size="14" text-anchor="middle">[:append y 1]</text></g><g id="edge1" class="edge"><title>T1:f1-&gt;T7:f0</title><path fill="none" stroke="#5b00c0" d="M341.8508,-331.2C341.8508,-258.7157 304.6657,-131.5935 303.8508,-130.8 275.0974,-102.8025 217.9732,-147.1374 207.5151,-122.7358"/><polygon fill="#5b00c0" stroke="#5b00c0" points="210.955 -122.084 205.851 -112.8 204.051 -123.241 210.955 -122.084"/><text x="335.234" y="-217.8" fill="#5b00c0" font-family="Times,serif" font-size="14" text-anchor="middle">rw</text></g><g id="node3" class="node"><title>T5</title><polygon fill="none" stroke="#0058ad" points="160.923 -166.1 160.923 -195.1 250.779 -195.1 250.779 -166.1 160.923 -166.1"/><text x="205.851" y="-176.4" fill="#0058ad" font-family="Times,serif" font-size="14" text-anchor="middle">[:append z 1]</text></g><g id="edge3" class="edge"><title>T3-&gt;T5</title><path fill="none" stroke="#0050c0" d="M173.8232,-248.597C179.5909,-236.3517 187.8944,-218.7227 194.6013,-204.4834"/><polygon fill="#0050c0" stroke="#0050c0" points="197.844 -205.813 198.939 -195.275 191.511 -202.83 197.844 -205.813"/><text x="212.784" y="-217.8" fill="#0050c0" font-family="Times,serif" font-size="14" text-anchor="middle">realtime</text></g><g id="node5" class="node"><title>T9</title><polygon fill="none" stroke="#0058ad" points="116.596 -.5 116.596 -29.5 269.105 -29.5 269.105 -.5 116.596 -.5"/><text x="147.53" y="-10.8" fill="#0058ad" font-family="Times,serif" font-size="14" text-anchor="middle">[:r z nil]</text><polyline fill="none" stroke="#0058ad" points="178.464 -.5 178.464 -29.5"/><text x="223.785" y="-10.8" fill="#0058ad" font-family="Times,serif" font-size="14" text-anchor="middle">[:append x 2]</text></g><g id="edge4" class="edge"><title>T3:f0-&gt;T9:f1</title><path fill="none" stroke="#c02700" d="M97.8508,-248.4C97.8508,-170.9858 106.4536,-145.5061 151.8508,-82.8 161.5771,-69.3652 205.3552,-55.3604 219.4581,-39.5365"/><polygon fill="#c02700" stroke="#c02700" points="222.846 -40.547 223.851 -30 216.488 -37.618 222.846 -40.547"/><text x="130.957" y="-135" fill="#c02700" font-family="Times,serif" font-size="14" text-anchor="middle">ww</text></g><g id="edge6" class="edge"><title>T5:f0-&gt;T1:f1</title><path fill="none" stroke="#c000a5" d="M227.8891,-195.2901C245.8938,-207.9792 271.3074,-227.5218 289.8508,-248.4 290.2119,-248.8065 323.3397,-301.2221 336.5247,-322.439"/><polygon fill="#c000a5" stroke="#c000a5" points="333.665 -324.473 341.851 -331.2 339.647 -320.837 333.665 -324.473"/><text x="315.234" y="-259.2" fill="#c000a5" font-family="Times,serif" font-size="14" text-anchor="middle">wr</text></g><g id="edge5" class="edge"><title>T5:f0-&gt;T7:f0</title><path fill="none" stroke="#c02700" d="M205.8508,-166.0517C205.8508,-154.7894 205.8508,-138.5269 205.8508,-122.9102"/><polygon fill="#c02700" stroke="#c02700" points="209.351 -122.8 205.851 -112.8 202.351 -122.8 209.351 -122.8"/><text x="215.957" y="-135" fill="#c02700" font-family="Times,serif" font-size="14" text-anchor="middle">ww</text></g><g id="edge7" class="edge"><title>T7:f1-&gt;T3:f1</title><path fill="none" stroke="#c000a5" d="M295.8508,-112.8C295.8508,-130.0135 262.0118,-213.2126 239.8508,-230.4 219.6798,-246.044 186.7272,-226.3597 177.3889,-238.6821"/><polygon fill="#c000a5" stroke="#c000a5" points="173.991 -237.84 174.851 -248.4 180.764 -239.609 173.991 -237.84"/><text x="286.234" y="-176.4" fill="#c000a5" font-family="Times,serif" font-size="14" text-anchor="middle">wr</text></g><g id="edge8" class="edge"><title>T7-&gt;T9</title><path fill="none" stroke="#0050c0" d="M240.4816,-82.997C231.7389,-70.5162 219.0788,-52.4427 209.008,-38.0658"/><polygon fill="#0050c0" stroke="#0050c0" points="211.734 -35.857 203.13 -29.675 206.001 -39.873 211.734 -35.857"/><text x="250.784" y="-52.2" fill="#0050c0" font-family="Times,serif" font-size="14" text-anchor="middle">realtime</text></g><g id="edge10" class="edge"><title>T9:f1-&gt;T1:f0</title><path fill="none" stroke="#c000a5" d="M268.8508,-15C336.9783,-15 397.8508,-29.6725 397.8508,-97.8 397.8508,-222 397.8508,-222 397.8508,-222 397.8508,-273.0965 369.5489,-283.6684 327.8508,-313.2 310.6329,-325.3941 284.6529,-312.3872 275.8723,-321.5167"/><polygon fill="#c000a5" stroke="#c000a5" points="272.488 -320.611 272.851 -331.2 279.171 -322.697 272.488 -320.611"/><text x="405.234" y="-176.4" fill="#c000a5" font-family="Times,serif" font-size="14" text-anchor="middle">wr</text></g><g id="edge9" class="edge"><title>T9:f0-&gt;T5:f0</title><path fill="none" stroke="#5b00c0" d="M116.8508,-15C-122.6003,-15 74.9433,-97.1146 110.8508,-147.6 111.0403,-147.8665 131.8829,-155.1193 153.9949,-162.7571"/><polygon fill="#5b00c0" stroke="#5b00c0" points="152.898 -166.081 163.493 -166.035 155.182 -159.464 152.898 -166.081"/><text x="80.234" y="-93.6" fill="#5b00c0" font-family="Times,serif" font-size="14" text-anchor="middle">rw</text></g></g></svg>